REM DIRINDEX 1\2\6,1\2\7,1\2\8,1\2\9,1\3\10,1\3\11,1\4\12,1\4\13,1\4\14,1\5\15,1\5\16,1\5\17
REM DIRNAME cjc020,folder01,folder02,folder03,folder04,folder05,folder06,folder07,folder08,folder09,folder10,folder11,folder12,folder13,folder14,folder15,folder16
TITLE ""
FILE "1900_2_sec04_0347_0362.mp3" MP3
  TRACK 01 AUDIO
    TITLE "0:"
    INDEX 01 00:00:00
  TRACK 02 AUDIO
    TITLE "13:cjc020_2793"
    INDEX 01 00:00:17
  TRACK 03 AUDIO
    TITLE "0:"
    INDEX 01 00:01:32
  TRACK 04 AUDIO
    TITLE "14:cjc020_2794"
    INDEX 01 00:01:34
  TRACK 05 AUDIO
    TITLE "0:"
    INDEX 01 00:04:40
  TRACK 06 AUDIO
    TITLE "13:cjc020_2795"
    INDEX 01 00:05:18
  TRACK 07 AUDIO
    TITLE "0:"
    INDEX 01 00:06:39
  TRACK 08 AUDIO
    TITLE "14:cjc020_2796"
    INDEX 01 00:06:43
  TRACK 09 AUDIO
    TITLE "0:"
    INDEX 01 00:08:64
  TRACK 10 AUDIO
    TITLE "13:cjc020_2797"
    INDEX 01 00:09:44
  TRACK 11 AUDIO
    TITLE "0:"
    INDEX 01 00:10:63
  TRACK 12 AUDIO
    TITLE "14:cjc020_2798"
    INDEX 01 00:10:66
  TRACK 13 AUDIO
    TITLE "0:"
    INDEX 01 00:11:60
  TRACK 14 AUDIO
    TITLE "13:cjc020_2799"
    INDEX 01 00:12:44
  TRACK 15 AUDIO
    TITLE "0:"
    INDEX 01 00:13:43
  TRACK 16 AUDIO
    TITLE "14:cjc020_2800"
    INDEX 01 00:13:45
  TRACK 17 AUDIO
    TITLE "0:"
    INDEX 01 00:14:33
  TRACK 18 AUDIO
    TITLE "13:cjc020_2801"
    INDEX 01 00:15:13
  TRACK 19 AUDIO
    TITLE "0:"
    INDEX 01 00:16:32
  TRACK 20 AUDIO
    TITLE "14:cjc020_2802"
    INDEX 01 00:16:34
  TRACK 21 AUDIO
    TITLE "0:"
    INDEX 01 00:19:69
  TRACK 22 AUDIO
    TITLE "13:cjc020_2803"
    INDEX 01 00:20:47
  TRACK 23 AUDIO
    TITLE "0:"
    INDEX 01 00:21:58
  TRACK 24 AUDIO
    TITLE "14:cjc020_2804"
    INDEX 01 00:21:62
  TRACK 25 AUDIO
    TITLE "0:"
    INDEX 01 00:26:03
  TRACK 26 AUDIO
    TITLE "13:cjc020_2805"
    INDEX 01 00:26:58
  TRACK 27 AUDIO
    TITLE "0:"
    INDEX 01 00:28:06
  TRACK 28 AUDIO
    TITLE "14:cjc020_2806"
    INDEX 01 00:28:10
  TRACK 29 AUDIO
    TITLE "0:"
    INDEX 01 00:30:63
  TRACK 30 AUDIO
    TITLE "13:cjc020_2807"
    INDEX 01 00:31:41
  TRACK 31 AUDIO
    TITLE "0:"
    INDEX 01 00:32:41
  TRACK 32 AUDIO
    TITLE "14:cjc020_2808"
    INDEX 01 00:32:47
  TRACK 33 AUDIO
    TITLE "0:"
    INDEX 01 00:38:41
  TRACK 34 AUDIO
    TITLE "13:cjc020_2809"
    INDEX 01 00:39:19
  TRACK 35 AUDIO
    TITLE "0:"
    INDEX 01 00:40:17
  TRACK 36 AUDIO
    TITLE "14:cjc020_2810"
    INDEX 01 00:40:21
  TRACK 37 AUDIO
    TITLE "0:"
    INDEX 01 00:44:52
  TRACK 38 AUDIO
    TITLE "13:cjc020_2811"
    INDEX 01 00:45:32
  TRACK 39 AUDIO
    TITLE "0:"
    INDEX 01 00:46:47
  TRACK 40 AUDIO
    TITLE "14:cjc020_2812"
    INDEX 01 00:46:53
  TRACK 41 AUDIO
    TITLE "0:"
    INDEX 01 00:49:04
  TRACK 42 AUDIO
    TITLE "13:cjc020_2813"
    INDEX 01 00:49:55
  TRACK 43 AUDIO
    TITLE "0:"
    INDEX 01 00:51:15
  TRACK 44 AUDIO
    TITLE "14:cjc020_2814"
    INDEX 01 00:51:16
  TRACK 45 AUDIO
    TITLE "0:"
    INDEX 01 00:54:52
  TRACK 46 AUDIO
    TITLE "13:cjc020_2815"
    INDEX 01 00:55:28
  TRACK 47 AUDIO
    TITLE "0:"
    INDEX 01 00:56:45
  TRACK 48 AUDIO
    TITLE "14:cjc020_2816"
    INDEX 01 00:56:47
  TRACK 49 AUDIO
    TITLE "0:"
    INDEX 01 01:01:66
  TRACK 50 AUDIO
    TITLE "13:cjc020_2817"
    INDEX 01 01:02:50
  TRACK 51 AUDIO
    TITLE "0:"
    INDEX 01 01:04:03
  TRACK 52 AUDIO
    TITLE "14:cjc020_2818"
    INDEX 01 01:04:07
  TRACK 53 AUDIO
    TITLE "0:"
    INDEX 01 01:07:49
  TRACK 54 AUDIO
    TITLE "13:cjc020_2819"
    INDEX 01 01:08:29
  TRACK 55 AUDIO
    TITLE "0:"
    INDEX 01 01:09:50
  TRACK 56 AUDIO
    TITLE "14:cjc020_2820"
    INDEX 01 01:09:54
  TRACK 57 AUDIO
    TITLE "0:"
    INDEX 01 01:11:51
  TRACK 58 AUDIO
    TITLE "13:cjc020_2821"
    INDEX 01 01:12:32
  TRACK 59 AUDIO
    TITLE "0:"
    INDEX 01 01:13:55
  TRACK 60 AUDIO
    TITLE "14:cjc020_2822"
    INDEX 01 01:13:59
  TRACK 61 AUDIO
    TITLE "0:"
    INDEX 01 01:16:71
  TRACK 62 AUDIO
    TITLE "13:cjc020_2823"
    INDEX 01 01:17:49
  TRACK 63 AUDIO
    TITLE "0:"
    INDEX 01 01:19:13
  TRACK 64 AUDIO
    TITLE "14:cjc020_2824"
    INDEX 01 01:19:17
  TRACK 65 AUDIO
    TITLE "0:"
    INDEX 01 01:21:59
